<?xml version="1.0" encoding="utf-8"?>
<!-- Generator: Adobe Illustrator 24.2.1, SVG Export Plug-In . SVG Version: 6.00 Build 0)  -->
<svg version="1.1" id="Layer_1" xmlns="http://www.w3.org/2000/svg" xmlns:xlink="http://www.w3.org/1999/xlink" x="0px" y="0px"
	 viewBox="0 0 24 24" style="enable-background:new 0 0 24 24;" xml:space="preserve">
<path d="M6.3,7.8c0,1-0.8,1.9-1.9,1.9S2.5,8.8,2.5,7.8s0.8-1.9,1.9-1.9S6.3,6.7,6.3,7.8z M5.9,15.9c0.6-0.9,0.3-2-0.5-2.6
	c-0.9-0.6-2-0.3-2.6,0.5s-0.3,2,0.5,2.6C4.2,17,5.4,16.8,5.9,15.9z M10.7,17.8l4.4-10.9c0.2-0.5,0-1.1-0.6-1.3l0,0
	c-0.5-0.2-1.1,0-1.3,0.6L8.9,17.1c-0.2,0.5,0,1.1,0.6,1.3h0C9.9,18.6,10.5,18.3,10.7,17.8z M16.7,18.2L21,7.3c0.2-0.5,0-1.1-0.6-1.3
	l0,0c-0.5-0.2-1.1,0-1.3,0.6l-4.4,10.9c-0.2,0.5,0,1.1,0.6,1.3l0,0C15.9,18.9,16.5,18.7,16.7,18.2z"/>
</svg>
